<?xml version="1.0" encoding="utf-8"?>
<svg viewBox="133.81 144.937 235.902 235.902" width="235.902" height="235.902" xmlns="http://www.w3.org/2000/svg">
  <g transform="matrix(1, 0, 0, 1, -1.937958, -14.129524)">
    <path d="M 246.725 212.048 C 217.135 160.868 140.473 175.265 140.473 239.398 C 140.473 283.557 192.839 328.71 253.268 389.166 C 313.708 328.71 366.063 283.557 366.063 239.398 C 366.063 175.048 287.308 158.743 260.125 212.114 L 248.513 233.655 L 273.608 251.362 L 244.75 291.832 L 270.829 324.555 L 254.16 362.609 L 249.954 349.003 L 250.792 327.316 L 227.184 292.465 L 244.75 262.11 L 234.711 236.817 L 246.725 212.048 Z" style="fill: rgb(251, 104, 136); stroke: rgb(0, 0, 0); stroke-width: 4px;"/>
    <path style="fill: rgb(216, 216, 216); stroke: rgb(0, 0, 0);" d="M 409.827 281.019"/>
    <path style="fill: rgb(216, 216, 216); stroke: rgb(0, 0, 0);" d="M 305.982 190.072"/>
  </g>
</svg>