<?xml version="1.0" encoding="utf-8"?>
<svg viewBox="0 0 500 500" xmlns="http://www.w3.org/2000/svg">
  <path style="stroke-width: 23px; stroke: rgb(0, 0, 0); fill: rgb(162, 232, 217);" d="M 175.393 68.455 C 180.624 55.377 333.448 57.467 329.053 68.454 C 328.986 68.186 334.352 92.867 339.196 114.385 L 425.003 114.385 C 434.987 114.385 443.081 122.479 443.081 132.463 L 443.081 400.06 C 443.081 410.044 434.987 418.138 425.003 418.138 L 77.66 418.138 C 67.676 418.138 59.582 410.044 59.582 400.06 L 59.582 132.463 C 59.582 122.479 67.676 114.385 77.66 114.385 L 167.287 114.385 Z"/>
  <g transform="matrix(1, 0, 0, 1, -1.937958, -14.129523)">
    <circle style="stroke: rgb(0, 0, 0); fill: none; stroke-width: 21px;" cx="253.699" cy="277.018" r="117.951"/>
    <path d="M 254.623 239.777 C 232.984 202.643 172.134 213.483 172.134 260.014 C 172.134 292.054 210.43 324.815 254.623 368.679 C 298.823 324.815 337.111 292.054 337.111 260.014 C 337.111 213.325 276.104 202.918 254.623 239.777 Z" style="fill: rgb(251, 104, 136); stroke-width: 21px; stroke: rgb(0, 0, 0);"/>
  </g>
  <path style="fill: rgb(216, 216, 216); stroke: rgb(0, 0, 0); stroke-width: 21px;" d="M 258.389 39.337 L 258.81 0"/>
  <path style="fill: rgb(216, 216, 216); stroke: rgb(0, 0, 0); stroke-width: 21px;" d="M 345.323 59.413 L 369.712 23.846"/>
  <path style="fill: rgb(216, 216, 216); stroke: rgb(0, 0, 0); stroke-width: 21px;" d="M 156.642 59.413 L 123.108 22.83"/>
</svg>