<?xml version="1.0" encoding="utf-8"?>
<svg viewBox="0 0 500 500" xmlns="http://www.w3.org/2000/svg">
  <g>
    <g transform="matrix(1.05922, 0, 0, 1.05922, -7.646102, 17.857986)" style="">
      <path d="M 243.041 92.329 C 188.574 -1.135 35.417 26.149 35.417 143.266 C 35.417 223.911 131.807 306.371 243.041 416.775 C 354.292 306.371 450.664 223.911 450.664 143.266 C 450.664 25.75 297.109 -0.444 243.041 92.329 Z" style="fill: rgb(162, 232, 217); stroke: rgb(255, 255, 255); stroke-width: 45.3164px;"/>
      <path d="M 268.366 261.744 L 303.652 261.744 C 318.151 261.744 329.9 250.038 329.9 235.544 C 329.9 221.594 318.586 210.326 304.636 210.326 L 268.365 210.326 L 268.365 175.202 C 268.365 160.702 256.664 148.953 242.165 148.953 C 228.214 148.953 216.95 160.26 216.95 174.215 L 216.95 210.326 L 180.817 210.326 C 166.859 210.326 155.41 221.689 155.41 235.643 L 155.41 236.624 C 155.41 250.579 166.859 261.743 180.817 261.743 L 216.95 261.743 L 216.95 298.042 C 216.95 312.001 228.28 323.287 242.238 323.287 L 243.212 323.287 C 257.17 323.287 268.364 312.001 268.364 298.042 L 268.364 261.744 L 268.366 261.744 Z" style="fill: rgb(255, 255, 255); stroke-width: 30.2109px;"/>
    </g>
  </g>
</svg>