<?xml version="1.0" encoding="utf-8"?>
<svg width="24" height="24" viewBox="0 0 24 24" xmlns="http://www.w3.org/2000/svg">
  <circle style="fill: rgb(255, 255, 255); stroke: rgb(255, 255, 255); stroke-width: 0.487904px;" cx="11.681" cy="13.561" r="10.439" transform="matrix(0.986276, 0, 0, 0.981806, 0.382105, -0.543346)"/>
  <path d="M 11.949 0 C 5.579 0 0.413 5.154 0.413 11.51 C 0.413 16.596 3.718 20.91 8.302 22.432 C 8.878 22.539 9.065 22.182 9.065 21.879 L 9.065 19.736 C 5.856 20.432 5.188 18.378 5.188 18.378 C 4.663 17.047 3.906 16.693 3.906 16.693 C 2.86 15.979 3.986 15.994 3.986 15.994 C 5.145 16.075 5.754 17.181 5.754 17.181 C 6.783 18.94 8.452 18.431 9.111 18.137 C 9.214 17.394 9.513 16.885 9.843 16.598 C 7.282 16.306 4.588 15.319 4.588 10.91 C 4.588 9.652 5.039 8.626 5.776 7.82 C 5.657 7.53 5.262 6.358 5.889 4.774 C 5.889 4.774 6.858 4.465 9.062 5.954 C 9.982 5.699 10.968 5.571 11.949 5.566 C 12.929 5.571 13.916 5.699 14.838 5.954 C 17.041 4.465 18.008 4.774 18.008 4.774 C 18.636 6.359 18.24 7.531 18.121 7.82 C 18.861 8.626 19.308 9.653 19.308 10.91 C 19.308 15.33 16.61 16.304 14.041 16.589 C 14.455 16.946 14.833 17.646 14.833 18.72 L 14.833 21.879 C 14.833 22.185 15.017 22.544 15.603 22.431 C 20.183 20.907 23.484 16.594 23.484 11.51 C 23.484 5.154 18.319 0 11.949 0 Z" style="fill: rgb(162, 232, 217); stroke-width: 0.5px; stroke: rgb(255, 255, 255);"/>
</svg>