<?xml version="1.0" encoding="utf-8"?>
<svg viewBox="0 0 500 500" xmlns="http://www.w3.org/2000/svg">
  <path d="M 105.899 195.025 L 220.906 112.408 C 235.814 101.698 250.666 101.779 265.458 112.648 L 339.354 166.945 L 339.354 82.602 L 402.582 82.602 L 402.582 443.985 C 402.582 467.667 383.383 486.865 359.701 486.865 L 125.145 486.865 C 101.463 486.865 82.264 467.667 82.264 443.985 L 82.264 233.554 C 82.264 217.164 91.459 202.922 104.972 195.704 C 105.276 195.477 105.585 195.25 105.899 195.025 Z" style="fill: rgb(162, 232, 217); stroke: rgb(255, 255, 255); stroke-width: 20px;"/>
  <path d="M 246.851 289.929 C 219.716 246.595 143.41 259.246 143.41 313.546 C 143.41 350.935 191.432 389.167 246.851 440.356 C 302.276 389.167 350.288 350.935 350.288 313.546 C 350.288 259.06 273.786 246.916 246.851 289.929 Z" style="fill: rgb(255, 255, 255); stroke: rgb(255, 255, 255); stroke-width: 38px;"/>
  <path d="M 371.77 16.942 C 363.686 4.033 340.956 7.802 340.956 23.978 C 340.956 35.114 355.262 46.503 371.77 61.753 C 388.282 46.503 402.582 35.114 402.582 23.978 C 402.582 7.746 379.794 4.129 371.77 16.942 Z" style="fill: rgb(255, 255, 255); stroke: rgb(255, 255, 255); stroke-width: 0px;"/>
</svg>