<?xml version="1.0" encoding="utf-8"?>
<svg width="24" height="24" viewBox="0 0 24 24" xmlns="http://www.w3.org/2000/svg">
  <circle style="stroke: rgb(255, 255, 255); fill: rgb(255, 255, 255); vector-effect: non-scaling-stroke; stroke-width: 0px;" cx="12.554" cy="11.741" r="9.752"/>
  <path d="M 11.741 0.877 C 5.258 0.877 0 5.951 0 12.208 C 0 18.465 5.258 23.537 11.741 23.537 C 18.226 23.537 23.484 18.465 23.484 12.208 C 23.484 5.951 18.226 0.877 11.741 0.877 Z M 9.785 15.984 L 7.828 15.984 L 7.828 10.319 L 9.785 10.319 L 9.785 15.984 Z M 8.807 9.478 C 8.213 9.478 7.73 9.009 7.73 8.431 C 7.73 7.853 8.212 7.384 8.807 7.384 C 9.402 7.384 9.883 7.853 9.883 8.431 C 9.883 9.009 9.401 9.478 8.807 9.478 Z M 16.635 15.984 L 14.679 15.984 L 14.679 13.283 C 14.679 11.507 12.72 11.657 12.72 13.283 L 12.72 15.984 L 10.764 15.984 L 10.764 10.319 L 12.72 10.319 L 12.72 11.351 C 13.574 9.825 16.635 9.713 16.635 12.812 L 16.635 15.984 Z" style="fill: rgb(162, 232, 217); fill-rule: evenodd; stroke: rgb(255, 255, 255); stroke-width: 0.4px;"/>
</svg>