<?xml version="1.0" encoding="utf-8"?>
<svg viewBox="406.098 109.762 164.977 151.23" width="164.977" height="151.23" xmlns="http://www.w3.org/2000/svg" xmlns:bx="https://boxy-svg.com">
  <g style="" transform="matrix(2.014754, 0, 0, 2.161805, -491.223633, -228.238785)">
    <path d="M 486.318 167.445 C 476.619 150.801 449.345 155.659 449.345 176.515 C 449.345 190.876 466.51 205.56 486.318 225.221 C 506.129 205.56 523.29 190.876 523.29 176.515 C 523.29 155.588 495.946 150.924 486.318 167.445 Z" style="fill: rgb(251, 104, 136); stroke: rgb(0, 0, 0); stroke-width: 0px;"/>
    <rect x="482.554" y="169.943" width="7.742" height="31.53" style="fill: rgb(255, 255, 255);" rx="2.02" ry="2.02"/>
    <path d="M 869.333 577.718 L 871.396 582.561 L 876.752 582.98 L 872.672 586.392 L 873.918 591.494 L 869.333 588.76 L 864.748 591.494 L 865.994 586.392 L 861.914 582.98 L 867.27 582.561 Z" style="fill: rgb(255, 255, 255);" transform="matrix(-0.828678, 0.559725, -0.615248, -0.791176, 1566.934334, 187.013691)" bx:shape="star 869.333 585.333 7.801 7.615 0.45 5 1@0aa76c9d"/>
  </g>
</svg>