<?xml version="1.0" encoding="utf-8"?>
<svg version="1.1" id="Capa_1" x="0px" y="0px" viewBox="0 0 611.999 611.999" style="enable-background:new 0 0 611.999 611.999;" xmlns="http://www.w3.org/2000/svg">
  <g transform="matrix(1, 0, 0, 1, 7.906509, 6.96549)">
    <path d="M 540.104 477.038 C 480.509 450.125 478.242 334.602 478.199 331.685 L 478.199 254.184 C 478.199 179.592 432.618 115.452 367.847 88.14 C 367.706 49.791 336.471 18.636 298.094 18.636 C 259.715 18.636 228.482 49.793 228.343 88.14 C 163.573 115.449 117.992 179.59 117.992 254.183 L 117.992 331.684 C 117.95 334.599 115.681 450.123 56.083 477.035 C 49.295 480.101 45.564 487.493 47.133 494.776 C 48.701 502.06 55.141 507.262 62.591 507.262 L 213.678 507.262 C 216.774 524.301 224.832 540.152 237.155 552.99 C 253.519 570.042 275.163 579.432 298.091 579.432 C 321.022 579.432 342.666 570.042 359.03 552.99 C 371.353 540.149 379.411 524.299 382.505 507.262 L 533.592 507.262 C 541.042 507.262 547.482 502.061 549.051 494.776 C 550.625 487.493 546.894 480.104 540.104 477.038" style="fill: rgb(162, 232, 217); stroke: rgb(255, 255, 255); stroke-width: 0px;"/>
    <g transform="matrix(1, 0, 0, 1, -5.053005, -30.916277)"/>
    <rect x="259.352" y="112.936" width="77.482" height="258.272" style="fill: rgb(255, 255, 255);" rx="24.794" ry="24.794"/>
    <circle style="fill: rgb(255, 255, 255);" cx="298.093" cy="436.293" r="48.764"/>
  </g>
</svg>