<?xml version="1.0" encoding="utf-8"?>
<svg viewBox="406.098 109.762 164.977 151.23" width="164.977" height="151.23" xmlns="http://www.w3.org/2000/svg">
  <g style="" transform="matrix(2.014754, 0, 0, 2.161805, -491.223633, -228.238785)">
    <path d="M 486.318 167.445 C 476.619 150.801 449.345 155.659 449.345 176.515 C 449.345 190.876 466.51 205.56 486.318 225.221 C 506.129 205.56 523.29 190.876 523.29 176.515 C 523.29 155.588 495.946 150.924 486.318 167.445 Z" style="fill: rgb(251, 104, 136); stroke: rgb(0, 0, 0); stroke-width: 0px;"/>
    <path d="M 481.206 168.733 L 482.436 170.666 L 483.666 172.599 L 484.896 174.532 L 486.126 176.465 L 487.356 178.398 L 488.586 180.331 L 489.816 182.264 L 491.045 184.197 L 492.275 186.13 L 493.505 188.063 L 494.735 189.996 L 495.964 191.928 L 497.194 193.861 L 498.424 195.794 L 499.654 197.727 L 500.883 199.66 L 498.651 199.66 L 496.419 199.66 L 494.187 199.66 L 491.955 199.66 L 489.723 199.66 L 487.491 199.66 L 485.259 199.66 L 483.027 199.66 L 480.796 199.66 L 478.564 199.66 L 476.332 199.66 L 474.1 199.66 L 471.868 199.66 L 469.636 199.66 L 467.404 199.66 L 465.172 199.66 L 466.175 197.727 L 467.177 195.794 L 468.179 193.861 L 469.181 191.928 L 470.183 189.996 L 471.185 188.063 L 472.187 186.13 L 492.612 195.977 L 474.192 182.264 L 475.194 180.331 L 476.196 178.398 L 477.198 176.465 L 478.2 174.532 L 479.202 172.599 L 480.204 170.666 L 481.206 168.733 Z" style="fill: rgb(255, 255, 255);" transform="matrix(0.878474, -0.47779, 0.47779, 0.878474, -29.306882, 253.170403)"/>
  </g>
</svg>