<?xml version="1.0" encoding="utf-8"?>
<svg viewBox="0 0 500 500" xmlns="http://www.w3.org/2000/svg">
  <path d="M 470.246 244.973 C 470.246 365.854 372.253 463.847 251.372 463.847 C 130.491 463.847 32.498 365.854 32.498 244.973 C 32.498 124.092 130.491 26.099 251.372 26.099 C 372.253 26.099 470.246 124.092 470.246 244.973 Z M 253.167 197.529 L 154.815 101.344 L 106.723 150.52 L 205.075 246.705 L 108.89 345.057 L 158.066 393.149 L 254.251 294.797 L 352.603 390.981 L 400.695 341.806 L 302.343 245.621 L 398.528 147.269 L 349.352 99.177 Z" style="fill: rgb(36, 39, 41);"/>
  <path d="M 470.746 244.973 C 470.746 305.516 446.164 360.422 406.493 400.094 C 366.821 439.765 311.915 464.347 251.372 464.347 C 190.829 464.347 135.923 439.765 96.251 400.094 C 56.58 360.422 31.998 305.516 31.998 244.973 C 31.998 184.43 56.58 129.524 96.251 89.852 C 135.923 50.181 190.829 25.599 251.372 25.599 C 311.915 25.599 366.821 50.181 406.493 89.852 C 446.164 129.524 470.746 184.43 470.746 244.973 Z M 405.786 90.559 C 366.24 51.014 311.71 26.599 251.372 26.599 C 191.034 26.599 136.504 51.014 96.958 90.559 C 57.413 130.105 32.998 184.635 32.998 244.973 C 32.998 305.311 57.413 359.841 96.958 399.387 C 136.504 438.932 191.034 463.347 251.372 463.347 C 311.71 463.347 366.24 438.932 405.786 399.387 C 445.331 359.841 469.746 305.311 469.746 244.973 C 469.746 184.635 445.331 130.105 405.786 90.559 Z" style="fill: none;"/>
  <path d="M 341.097 142.343 L 341.097 279.91 L 478.664 279.91 L 478.664 349.693 L 341.097 349.693 L 341.097 487.26 L 271.314 487.26 L 271.314 349.693 L 133.747 349.693 L 133.747 279.91 L 271.314 279.91 L 271.314 142.343 Z M 272.314 280.91 L 134.747 280.91 L 134.747 348.693 L 272.314 348.693 L 272.314 486.26 L 340.097 486.26 L 340.097 348.693 L 477.664 348.693 L 477.664 280.91 L 340.097 280.91 L 340.097 143.343 L 272.314 143.343 Z" style="fill: none;" transform="matrix(0.714942, 0.699184, -0.699184, 0.714942, 254.894073, -192.995956)"/>
</svg>